<svg xmlns="http://www.w3.org/2000/svg" viewBox="0 0 170 170">
  <defs>
    <style>
      .cls-1 {
        fill: #00aeef;
      }
    </style>
  </defs>
  <g id="Layer_3" data-name="Layer 3">
    <path id="Logo" class="cls-1" d="M133.21,82.78a55.33,55.33,0,0,0,2.4-16.14c0-23.54-14.72-43.48-35.06-50.34-1.84-4-7.83-6.9-15-6.9-6.85,0-12.65,2.7-14.72,6.44C49.8,22.23,34.39,42.55,34.39,66.64a55.33,55.33,0,0,0,2.4,16.14c-3.88-.8-7.88,0-3.37,12.1,4.5,6.43.74,15.75,2.54,16.87s4.29.12,5.58-1.48c1.89,2.29,3.63,4.33,15.8,6.62,6.74,1.27,10.46,1.65,12.67,2V91.16L51.68,81V62a3.65,3.65,0,1,1,3.1,0V79.15L70,87.61V30.81a3.61,3.61,0,0,1-2.11-3.3,3.66,3.66,0,1,1,5.21,3.3v89l.08.07s-19.32,10.8-19.84,13.91c-1.77,10.53,3.21,26.84,3.21,26.84H83.5V58.31a3.65,3.65,0,1,1,3.1,0V160.6h26.84s5-16.31,3.21-26.84c-.52-3.11-19.84-13.91-19.84-13.91h0v-7.57l2.48-1.65V119c2.1-.33,5.86-.65,13.37-2.06,12.17-2.29,13.91-4.33,15.8-6.62,1.29,1.6,3.78,2.61,5.58,1.48s-2-10.44,2.54-16.87C141.09,82.78,137.09,82,133.21,82.78ZM105.81,78a3.42,3.42,0,0,1,1.24,6.6V88l-2.48,1.32V84.58a3.42,3.42,0,0,1,1.24-6.6Zm1.26,25.36-11.19,8-1.44-2,10.15-7.28V95.75l2.48-1.39ZM117.3,67.67v19.1l-18,10.57v7.26l-2.48,1.69V43.08a3.48,3.48,0,1,1,2.48,0V94.6l15.53-9.24V67.67a3.48,3.48,0,1,1,2.48,0Z"/>
  </g>
</svg>
