<svg xmlns="http://www.w3.org/2000/svg" viewBox="0 0 1280 278.92">
  <defs>
    <style>
      .cls-1 {
        fill: #00aeef;
      }

      .cls-2 {
        fill: #3c5186;
      }
    </style>
  </defs>
  <g id="Layer_3" data-name="Layer 3">
    <g id="Horizontal">
      <path id="Logo" class="cls-1" d="M187.77,135.36a101.65,101.65,0,0,0,4.43-29.76c0-43.44-27.15-80.22-64.67-92.88C124.14,5.38,113.09,0,100,0,87.31,0,76.61,5,72.79,11.88,33.9,23.67,5.47,61.15,5.47,105.6A101.65,101.65,0,0,0,9.9,135.36c-7.16-1.48-14.53,0-6.21,22.33C12,169.55,5,186.74,8.37,188.81s7.92.22,10.29-2.74c3.48,4.22,6.7,8,29.16,12.23,12.42,2.33,19.28,3,23.36,3.59V150.82L37.36,132V97a6.74,6.74,0,1,1,5.72,0v31.71l28.1,15.6V39.49a6.74,6.74,0,1,1,5.71,0V203.61l.16.13s-35.64,19.94-36.61,25.68c-3.26,19.41,5.93,49.5,5.93,49.5h49.7V90.21a6.74,6.74,0,1,1,5.71,0V278.92H151.3s9.19-30.09,5.93-49.5c-1-5.74-36.61-25.68-36.61-25.68h0v-14l4.57-3v15.36c3.87-.6,10.81-1.18,24.66-3.78,22.45-4.23,25.67-8,29.15-12.23,2.38,3,7,4.82,10.3,2.74s-3.63-19.26,4.67-31.12C202.3,135.36,194.93,133.88,187.77,135.36Zm-50.54-8.85a6.3,6.3,0,0,1,2.29,12.18V145L135,147.44v-8.75a6.3,6.3,0,0,1,2.28-12.18Zm2.32,46.78L118.92,188.1l-2.67-3.71L135,170.94V159.29l4.57-2.56Zm18.88-65.79v35.23l-33.23,19.5v13.4l-4.58,3.1V62.13a6.41,6.41,0,1,1,4.58,0v95.05l28.65-17.06V107.5a6.41,6.41,0,1,1,4.58,0Z"/>
      <g id="Text">
        <path class="cls-2" d="M340.2,137.89H302.5V246.27H273.16V137.89H235.45V110.66H340.2Z"/>
        <path class="cls-2" d="M443.43,219v27.3H359.88V110.66H441.3v27.1H389.22v26.79h47v26.56h-47V219Z"/>
        <path class="cls-2" d="M528.24,249.2c-39.83,0-70-30.53-70-70.57,0-40.37,30.2-70.89,70-70.89,33,0,59.33,21.84,65.62,54H564.44c-5.54-16-19.11-26-36.21-26-23,0-40.29,18.49-40.29,42.88s17.34,42.57,40.29,42.57c17.85,0,31.6-10.78,36.48-27.95h29.57c-6.13,33.53-32.46,55.95-66,55.95Z"/>
        <path class="cls-2" d="M725.14,110.66V246.27H695.8V190.19h-51v56.08H615.42V110.66h29.34V162.9h51V110.66Z"/>
        <path class="cls-2" d="M902.24,246.27,883.32,134.73,834.9,242H831L782.66,134.86,763.57,246.27H749.72l23.19-135.61h12.94l47,105.36L880,110.66h13.21l22.86,135.61Z"/>
        <path class="cls-2" d="M933.18,194c0-31.46,23.66-54.51,55.14-54.51s55.13,23.25,55.13,54.51-23.59,54.52-55.13,54.52S933.18,225.23,933.18,194Zm96.83,0c0-24.08-17.61-41.75-41.69-41.75S946.63,169.82,946.63,194s17.67,41.75,41.69,41.75S1030,218,1030,194Z"/>
        <path class="cls-2" d="M1160.87,183.85v62.42H1147.7V186.83c0-22.41-11.12-35.29-30.67-35.29-19,0-34.21,16.17-34.21,36.42v58.31h-13.17V141.66h9.51l2.62,18.48c7.8-12.7,21.83-20.69,38.51-20.69C1145.26,139.45,1160.87,157.83,1160.87,183.85Z"/>
        <path class="cls-2" d="M1224.9,197.82h-16.54v48.45h-13.17V104.44h13.17v81.15h16.75l34.9-43.93h16.12l-39.78,50.11,43.65,54.5h-16.52Z"/>
      </g>
    </g>
  </g>
</svg>
